<svg width="154" height="154" fill="none" xmlns="http://www.w3.org/2000/svg"><path d="M0 77l4.481-6.354-3.324-7.026 5.512-5.47-2.04-7.49 6.374-4.439-.694-7.721 7.048-3.26.652-7.743 7.51-1.978 1.978-7.51 7.742-.652 3.261-7.048 7.721.694 4.44-6.375L58.15 6.67l5.47-5.512 7.026 3.324L77 0l6.354 4.481 7.026-3.324 5.47 5.512 7.49-2.04 4.439 6.374 7.721-.694 3.261 7.048 7.742.652 1.978 7.51 7.51 1.978.652 7.742 7.048 3.261-.694 7.721 6.375 4.44-2.041 7.489 5.512 5.47-3.324 7.026L154 77l-4.481 6.354 3.324 7.026-5.512 5.47 2.041 7.49-6.375 4.439.694 7.721-7.048 3.261-.652 7.742-7.51 1.978-1.978 7.51-7.742.652-3.261 7.048-7.721-.694-4.439 6.375-7.49-2.041-5.47 5.512-7.026-3.324L77 154l-6.354-4.481-7.026 3.324-5.47-5.512-7.49 2.041-4.439-6.375-7.721.694-3.26-7.048-7.743-.652-1.978-7.51-7.51-1.978-.652-7.742-7.048-3.261.694-7.721-6.375-4.439 2.041-7.49-5.512-5.47 3.324-7.026L0 77z" fill="url(#paint0_linear)"/><defs><linearGradient id="paint0_linear" x1="77" y1="0" x2="77" y2="154" gradientUnits="userSpaceOnUse"><stop stop-color="#F7B512"/><stop offset="1" stop-color="#F47D16"/></linearGradient></defs></svg>