<svg width="58" height="58" fill="none" xmlns="http://www.w3.org/2000/svg"><g filter="url(#filter0_b)"><path d="M29 58c16.016 0 29-12.984 29-29S45.016 0 29 0 0 12.984 0 29s12.984 29 29 29z" fill="#fff"/><path d="M57.755 25.217H32.782V.245a29.29 29.29 0 00-7.566 0v24.972H.245a29.29 29.29 0 000 7.566h24.972v24.971a29.29 29.29 0 007.566 0v-24.97h24.971a29.288 29.288 0 000-7.566z" fill="#D80027"/><path d="M17.651 13.87v-3.782H13.87v3.783h-3.783v3.782h3.783v3.783h3.782v-3.783h3.783v-3.782H17.65zm26.481 0v-3.782h-3.783v3.783h-3.783v3.782h3.783v3.783h3.783v-3.783h3.782v-3.782h-3.782zM17.651 40.349v-3.783H13.87v3.783h-3.783v3.783h3.783v3.782h3.782v-3.782h3.783v-3.783H17.65zm26.481 0v-3.783h-3.783v3.783h-3.783v3.783h3.783v3.782h3.783v-3.782h3.782v-3.783h-3.782z" fill="#D80027"/></g><defs><filter id="filter0_b" x="-30" y="-30" width="118" height="118" filterUnits="userSpaceOnUse" color-interpolation-filters="sRGB"><feFlood flood-opacity="0" result="BackgroundImageFix"/><feGaussianBlur in="BackgroundImage" stdDeviation="15"/><feComposite in2="SourceAlpha" operator="in" result="effect1_backgroundBlur"/><feBlend in="SourceGraphic" in2="effect1_backgroundBlur" result="shape"/></filter></defs></svg>