<svg width="28" height="25" fill="none" xmlns="http://www.w3.org/2000/svg"><path d="M24.165 1.855A1.708 1.708 0 0023.47.738a1.702 1.702 0 00-1.279-.297l-6.096 1.015-.274-.55a1.62 1.62 0 00-.94-.82 1.615 1.615 0 00-1.245.086l-5.083 2.54-1.45.241a1.718 1.718 0 00-1.346 1.155L.902 6.533a1.636 1.636 0 00-.731 2.19l7.643 15.372a1.62 1.62 0 001.46.905c.248 0 .496-.058.725-.172l.498-.25a1.5 1.5 0 00.187-.019l15.088-2.512a1.704 1.704 0 001.115-.696 1.71 1.71 0 00.296-1.282L24.165 1.855zm-10.105-.83a.674.674 0 01.91.305l.144.29-3.365.56 2.311-1.155zM9.057 24.01a.674.674 0 01-.392-.341L1.022 8.298a.682.682 0 01.304-.912l4.408-2.202.133.804-3.066 1.531a1.205 1.205 0 00-.538 1.612L7.7 20.068c.13.262.344.456.593.565l.417 2.512c.056.338.207.644.435.89a.675.675 0 01-.09-.024zm17.056-3.214a.76.76 0 01-.497.31l-12.254 2.04-2.834.472a.763.763 0 01-.88-.63l-.39-2.36-.163-.979L6.92 6.526l-.163-.983-.128-.768-.004-.036a.767.767 0 01.634-.846l1.59-.265 2.612-.435 3.3-.55.796-.132.981-.163 5.81-.967a.758.758 0 01.57.133.755.755 0 01.309.497l3.019 18.214a.763.763 0 01-.133.572z" fill="#2E2E2E"/><path d="M24.73 16.459v-.002l-.476-2.872-1.665-10.05a1.249 1.249 0 00-.508-.816 1.244 1.244 0 00-.934-.217L8.744 4.567a1.24 1.24 0 00-.814.509 1.25 1.25 0 00-.217.936l1.512 9.126.145.872.49 2.96a1.257 1.257 0 001.443 1.035l6.723-1.12 4.545-.757 1.098-.183.036-.006a1.258 1.258 0 001.032-1.445l-.006-.035zm-1.217.547l-.88.146-4.393-3.742.297-.534.728-.286.648.222c.15.051.316.024.443-.073l.549-.423.733.03 1.706 1.559.45 2.71a.341.341 0 01-.28.39zm-4.436.738l-2.575.429-1.01.168 2.275-4.083 3.638 3.099-2.328.387zm-8.75-1.774l-.164-.988a.095.095 0 01.017-.072l1.106-1.475.648.222a.473.473 0 00.436-.068l.526-.39.653.197c.144.043.3.016.42-.074l.526-.391.675.197c.152.044.317.01.439-.093l.363-.306 1.057.9-2.738 4.912-3.055.509a.394.394 0 01-.453-.325l-.457-2.755zM8.702 5.63a.301.301 0 01.197-.123L21.302 3.44a.3.3 0 01.226.053c.067.047.11.117.123.197l1.441 8.694-3.115-2.846-.018-.015-.02-.017-.023-.015-.023-.014c-.007-.005-.015-.008-.022-.012-.009-.004-.017-.009-.026-.012l-.02-.008a.176.176 0 00-.03-.01.077.077 0 00-.019-.005l-.034-.008-.016-.003-.036-.004h-.054l-.024.001-.027.003h-.004l-.027.007-.024.005-.027.01-.024.007-.027.013-.022.01-.027.017-.018.011-.029.023-.013.01a.48.48 0 00-.03.03l-.008.008a.48.48 0 00-.029.036l-.005.005a.49.49 0 00-.03.047l-1.74 3.123-3.835-3.267a.473.473 0 00-.36-.11h-.001a.475.475 0 00-.076.016l-.019.004c-.02.007-.04.017-.06.026l-.028.013c-.018.01-.034.024-.051.037-.009.007-.019.012-.027.02a.483.483 0 00-.055.058l-.011.013-.02.025-3.017 4.026-1.29-7.787a.303.303 0 01.052-.226z" fill="#2E2E2E"/><path d="M19.471 7.975a1.607 1.607 0 001.31-.675c.25-.35.348-.777.278-1.202a1.61 1.61 0 00-1.85-1.326c-.424.07-.795.302-1.045.653a1.612 1.612 0 001.308 2.55zm-.534-1.996a.653.653 0 01.918-.153.655.655 0 01.266.428.656.656 0 01-.541.76.659.659 0 01-.643-1.035zm-7.422 3.464c.068 0 .137-.006.207-.017l3.236-.54c.758-.126 1.085-.778 1.016-1.358-.058-.483-.395-.95-.95-1.06a1.93 1.93 0 00-.667-.88c-.393-.277-.874-.368-1.428-.267-.678.123-1.164.417-1.445.875a1.73 1.73 0 00-.248.896 2.45 2.45 0 00-.114.038c-.59.214-.904.811-.745 1.42.141.542.602.893 1.138.893zm-.07-1.417c.187-.068.348-.083.348-.083a.475.475 0 00.418-.61c-.001-.003-.093-.353.083-.638.133-.217.404-.364.805-.436.862-.156 1.058.534 1.097.746a.475.475 0 00.517.396l.025-.002c.226-.016.28.145.292.242.012.098-.002.268-.228.306l-3.236.539c-.186.031-.249-.097-.27-.176-.02-.079-.028-.22.15-.284zm-7.672 9.922l-2.12-4.417a.475.475 0 10-.856.414l2.12 4.416a.475.475 0 10.856-.413zm.737 1.445a.475.475 0 10-.858.41l.237.5a.475.475 0 10.859-.41l-.238-.5zM25.964 7.04a.476.476 0 10.939-.152l-.142-.878a.474.474 0 10-.938.152l.141.878zm1.144 1.474a.475.475 0 10-.938.152l.884 5.47a.476.476 0 10.938-.152l-.884-5.47z" fill="#2E2E2E"/></svg>