<svg width="31" height="26" fill="none" xmlns="http://www.w3.org/2000/svg"><path d="M20.776 13.729c.073.07.142.137.192.199.14.174.111.431.037.613-.073.177-.243.284-.533.42a.492.492 0 00-.239.669.533.533 0 00.694.23c.283-.133.808-.38 1.043-.951.233-.569.165-1.166-.184-1.596-.088-.11-.183-.201-.274-.29-.125-.12-.243-.235-.274-.333-.11-.356-.066-.845.423-1.055a.493.493 0 00.264-.66.527.527 0 00-.685-.254c-.883.377-1.292 1.306-.996 2.257.105.338.342.567.532.75zm2.574 0c.073.07.142.137.192.199.141.174.112.431.037.613-.073.177-.243.284-.533.42a.492.492 0 00-.239.669.533.533 0 00.694.23c.283-.133.809-.38 1.043-.951.233-.569.165-1.166-.184-1.596-.088-.11-.183-.201-.274-.29-.125-.12-.243-.235-.274-.333-.11-.356-.066-.845.423-1.055a.493.493 0 00.264-.66.527.527 0 00-.684-.254c-.884.377-1.293 1.306-.997 2.257.106.338.342.566.532.75zm2.574 0c.073.07.142.137.192.199.141.174.112.431.037.613-.072.177-.243.284-.532.42a.492.492 0 00-.24.669.534.534 0 00.694.23c.283-.133.81-.38 1.043-.951.234-.569.165-1.166-.183-1.596-.088-.11-.183-.201-.275-.29-.125-.12-.243-.235-.273-.333-.111-.356-.067-.845.423-1.055a.493.493 0 00.264-.66.526.526 0 00-.685-.254c-.883.377-1.293 1.306-.996 2.257.105.338.341.567.531.75zm-12.183-3.65h-.75V6.237h.448c.778 0 1.411-.61 1.411-1.36V3.66c0-.75-.633-1.36-1.411-1.36h-.544l-.02-.071-.02-.063a2.841 2.841 0 00-.095-.26 2.713 2.713 0 00-.03-.068c-.008-.02-.018-.04-.027-.059-.01-.022-.02-.044-.032-.065l-.032-.061a3.009 3.009 0 00-.06-.108l-.038-.062-.038-.058-.037-.057-.041-.057a3.42 3.42 0 00-.127-.164l-.044-.051c-.016-.02-.034-.039-.05-.057l-.042-.045A3.154 3.154 0 0012.07.9l-.042-.04-.06-.055-.047-.04a3.28 3.28 0 00-.06-.05l-.05-.04a3.413 3.413 0 00-.18-.13l-.046-.031a3.352 3.352 0 00-.24-.14c-.015-.009-.03-.016-.046-.024a3.16 3.16 0 00-.35-.152L10.9.18a3.194 3.194 0 00-.1-.032l-.04-.012a3.331 3.331 0 00-.138-.038l-.037-.009a3.166 3.166 0 00-.106-.023l-.052-.01a3.237 3.237 0 00-.401-.05L9.978.005C9.928 0 9.878 0 9.827 0H5.314C3.568 0 2.148 1.368 2.148 3.05v21.526c0 .784.663 1.423 1.477 1.423h7.89c.814 0 1.477-.639 1.477-1.423V18.68h.749c1.107 0 2.007-.868 2.007-1.934v-4.733c0-1.067-.9-1.934-2.007-1.934zm-.75-6.78h.448c.206 0 .373.162.373.36v1.218c0 .199-.167.36-.373.36h-.447V3.3zm-1.037 21.277a.432.432 0 01-.44.423H3.626a.432.432 0 01-.439-.423v-1.042h8.768v1.042zm0-2.042H3.186v-2.24h2.191c.876 0 1.588-.687 1.588-1.53v-5.409c0-.843-.712-1.53-1.588-1.53h-2.19V9.54h8.767v12.995zm0-16.797v.777H3.186V3.05c0-1.13.955-2.05 2.128-2.05h4.513c1.173 0 2.127.92 2.127 2.05v2.687zm2.756 11.009c0 .515-.435.934-.969.934h-.749v-6.6h.75c.533 0 .968.418.968.933v4.733zm14.944 2.348h-.556v-1.893a.51.51 0 00-.519-.5h-9.755a.51.51 0 00-.52.5v6.444c0 1.298 1.098 2.355 2.446 2.355h5.903c.076 0 .15-.003.223-.01l.017-.001c.07-.007.139-.017.207-.029l.025-.004a2.53 2.53 0 00.196-.046l.029-.008c.063-.018.124-.038.185-.06l.03-.012c.06-.023.12-.049.177-.077l.026-.013c.058-.029.116-.06.171-.093l.02-.013c.057-.034.113-.07.166-.11l.012-.01a2.44 2.44 0 00.313-.275c.002 0 .004-.003.006-.005.047-.049.09-.1.132-.152l.012-.014c.04-.052.078-.104.114-.159a2.346 2.346 0 00.281-.59l.006-.02c.02-.064.037-.13.05-.196l.003-.013c.014-.07.024-.14.032-.21h.568c.742 0 1.346-.583 1.346-1.297V20.39c0-.715-.604-1.297-1.346-1.297zm-1.594 4.55c0 .748-.63 1.356-1.407 1.356H20.75c-.776 0-1.407-.608-1.407-1.356v-4.268h8.717v4.268zm1.902-1.061a.302.302 0 01-.308.296h-.556v-2.785h.556c.17 0 .308.133.308.297v2.192zM.519 19.814a.51.51 0 00-.519.5v.408c0 .276.232.5.519.5a.51.51 0 00.519-.5v-.407a.51.51 0 00-.519-.5zm0-6.704a.51.51 0 00-.519.5v4.851c0 .277.232.5.519.5a.51.51 0 00.519-.5V13.61a.51.51 0 00-.519-.5zm0-4.852a.51.51 0 00-.519.5v2.726c0 .276.232.5.519.5a.51.51 0 00.519-.5V8.758a.51.51 0 00-.519-.5zm16.387 14.75a.51.51 0 00-.52.5v.407c0 .277.233.5.52.5a.51.51 0 00.519-.5v-.407a.51.51 0 00-.52-.5zm0-4.951a.51.51 0 00-.52.5v3.101c0 .276.233.5.52.5a.51.51 0 00.519-.5v-3.101a.51.51 0 00-.52-.5z" fill="#2E2E2E"/></svg>