<svg width="38" height="21" fill="none" xmlns="http://www.w3.org/2000/svg"><path d="M37.504 9.894c-.243-.818-.748-1.588-1.462-2.226-2.4-2.142-5.965-3.124-8.671-3.574C26.007 2.072 23.465 0 18.77 0c-3.132 0-5.63.911-7.423 2.709a8.872 8.872 0 00-1.11 1.361c-.16.023-.322.048-.487.074-.327-.498-.702-.908-1.126-1.135a1.641 1.641 0 00-1.419-.084c-.977.39-1.83 1.435-2.469 2.63-1.063.469-2.072 1.06-2.94 1.809C.427 8.546-.163 9.912.04 11.422c.38 2.809 3.559 5.518 6.352 6.847 3.672 1.747 7.977 2.673 12.449 2.677h.037c4.666-.006 9.269-1.049 12.963-2.936 1.067-.545 4.627-2.572 5.638-5.757a3.948 3.948 0 00.026-2.359zM10.57 5.495l.028-.057c.086-.167.18-.334.28-.5.013-.024.028-.047.042-.07.036-.058.072-.117.11-.175l.06-.09a7.956 7.956 0 01.472-.638l.075-.091a8.61 8.61 0 01.137-.156l.067-.076c.07-.076.142-.152.216-.226 1.6-1.602 3.857-2.414 6.713-2.414 3.86 0 6.614 1.459 8.186 4.337.045.083.088.166.13.249l.025.048c.04.08.079.16.116.24l.02.043.105.237.006.014c.035.082.068.164.1.245l.017.043.09.24.01.027.082.238.003.01.077.242.008.028.069.237c-.11.063-.222.125-.333.185l-.032.018c-.104.056-.208.11-.312.164l-.056.03c-.099.05-.198.1-.297.148l-.073.036c-.095.046-.191.09-.287.135l-.085.04c-.092.042-.185.083-.278.123l-.097.043-.27.113c-.036.014-.071.03-.106.043-.089.036-.177.07-.266.104l-.113.044-.261.095-.12.043c-.085.03-.171.059-.257.087l-.127.042a16.688 16.688 0 01-1.162.332 18.15 18.15 0 01-1.182.248 15.753 15.753 0 01-.63.097l-.169.022a16.871 16.871 0 01-1.03.098l-.183.01c-.074.004-.148.008-.222.01-.062.004-.124.005-.186.007h-.012c.006-.106.01-.212.013-.317.023-1.026-.096-2.44-.794-3.35a1.804 1.804 0 00-1.476-.738c-1.577 0-3.497 1.811-4.457 2.835a1.418 1.418 0 00-.169-.06L11.7 7.874a1.413 1.413 0 00-.459-.046 17.526 17.526 0 00-.732-2.21l.06-.122zm17.436 3.026l.154 1.057c-.54.463-2.455 1.859-6.419 2.346a23.01 23.01 0 01-.555.06l-.082.008c-.184.017-.37.032-.558.045l-.073.004c-.38.025-.77.041-1.163.049.11-.415.198-.855.261-1.301a18.471 18.471 0 008.435-2.268zM14.838 9.866a.502.502 0 11-.146-.991l1.362-.2a.5.5 0 11.146.99l-1.362.201zm1.217 2.055a.501.501 0 01-.701.108l-1.227-.9a.5.5 0 11.594-.807l1.226.9a.5.5 0 01.108.7zm-3.24-2.274l-.369 1.356a.415.415 0 01-.196.251.417.417 0 01-.317.042L10.848 11a.415.415 0 01-.252-.196.413.413 0 01-.042-.316l.37-1.356a.419.419 0 01.513-.293l1.085.295a.415.415 0 01.252.196c.056.097.07.21.042.316zM8.104 7.313a.502.502 0 01.704-.094l.852.651a.5.5 0 11-.609.796l-.853-.651a.5.5 0 01-.094-.702zm-.329 1.842l1.187-.1a.501.501 0 11.084.998l-1.186.1a.501.501 0 11-.084-.998zm28.748 2.795c-.71 2.237-3.12 4.136-5.14 5.168-3.558 1.818-8.004 2.821-12.519 2.825h-.022c-4.324-.003-8.48-.895-12.018-2.578-3.486-1.659-5.551-4.312-5.79-6.076-.155-1.155.322-2.22 1.42-3.167.33-.285.865-.69 1.636-1.118a9.82 9.82 0 00-.494 1.849c-.183 1.199-.004 2.056.518 2.479.505.41 1.51.54 2.575.54.585 0 1.188-.04 1.737-.092l-3.312 2.518a.956.956 0 00-.09 1.447l1.337 1.304a.96.96 0 001.433-.104l3.139-4.111.616 5.099a.987.987 0 001.22.84l1.747-.432a.987.987 0 00.677-1.333l-1.408-3.432c1.01.715 2.22 1.385 3.214 1.385.098 0 .193-.007.286-.02.656-.095 1.238-.724 1.685-1.82l.01-.023.18-.001.116-.002.222-.005c.043 0 .085-.002.127-.003l.205-.006.133-.006.191-.008.134-.008.184-.01.132-.009.18-.012.13-.01.174-.014.128-.012.17-.016.124-.013.168-.018.12-.014.165-.02.116-.015.163-.022.11-.016c.054-.008.11-.015.163-.024l.104-.016.161-.026.103-.018c.053-.008.105-.017.157-.027l.098-.018.156-.03.094-.018.153-.03.091-.02.15-.032.088-.02a16.093 16.093 0 00.23-.054l.145-.036.08-.02.143-.037.076-.02.142-.04.07-.02.14-.04.07-.02a12.89 12.89 0 00.527-.17l.062-.02.127-.045.057-.02.125-.046.054-.02.122-.047.052-.02.12-.048.047-.02a21.409 21.409 0 00.277-.116l.044-.02a8.3 8.3 0 00.26-.118l.04-.019.103-.05.038-.018.1-.05.036-.018.099-.05c.01-.007.02-.012.032-.018l.096-.05.03-.017.092-.051.03-.017.088-.05.027-.016.086-.05.026-.016a8.836 8.836 0 00.184-.113l.023-.014a9.317 9.317 0 00.096-.063l.073-.048.019-.012.07-.047.017-.013a6.48 6.48 0 00.066-.046l.017-.012a7.555 7.555 0 00.077-.056l.06-.044.014-.01a10.79 10.79 0 00.132-.103l.05-.04.01-.008.045-.037.011-.01a.487.487 0 00.042-.035l.008-.007.04-.034.008-.007a4.76 4.76 0 00.042-.038l.031-.028.008-.008.027-.025.008-.007.022-.022.008-.007.02-.02a.38.38 0 00.006-.006l.016-.017.006-.005.013-.013a.32.32 0 01.006-.006l.009-.01.005-.006.006-.005a.01.01 0 01.005-.006l.003-.004.002-.002.002-.003a.503.503 0 00.048-.065l.008-.011a.516.516 0 00.035-.072l.005-.015a.514.514 0 00.021-.079l.002-.008a.505.505 0 00.006-.078v-.008c0-.095-.038-2.252-1.166-4.53 2.436.48 5.349 1.403 7.345 3.186.574.514.979 1.123 1.169 1.764a2.961 2.961 0 01-.02 1.771z" fill="#2E2E2E"/></svg>