<svg width="16" height="13" fill="none" xmlns="http://www.w3.org/2000/svg"><path d="M2.328 5.229c.856 0 1.552-.782 1.552-1.743 0-.962-.696-1.743-1.552-1.743-.856 0-1.552.781-1.552 1.743 0 .961.696 1.743 1.552 1.743zm10.864 0c.856 0 1.552-.782 1.552-1.743 0-.962-.696-1.743-1.552-1.743-.856 0-1.552.781-1.552 1.743 0 .961.696 1.743 1.552 1.743zm.776.871h-1.552c-.427 0-.812.193-1.094.507.978.601 1.671 1.688 1.822 2.979h1.6c.43 0 .776-.39.776-.872v-.871c0-.961-.696-1.743-1.552-1.743zm-6.208 0c1.501 0 2.716-1.364 2.716-3.05C10.476 1.364 9.261 0 7.76 0 6.259 0 5.044 1.364 5.044 3.05c0 1.686 1.215 3.05 2.716 3.05zm1.862.871h-.2a3.481 3.481 0 01-1.662.436 3.489 3.489 0 01-1.661-.436h-.201c-1.543 0-2.794 1.406-2.794 3.138v.784c0 .721.521 1.307 1.164 1.307h6.984c.643 0 1.164-.585 1.164-1.307v-.784c0-1.732-1.251-3.138-2.794-3.138zm-5.424-.364A1.467 1.467 0 003.104 6.1H1.552C.696 6.1 0 6.882 0 7.843v.871c0 .482.347.872.776.872h1.598c.153-1.291.846-2.378 1.824-2.98z" fill="currentColor"/></svg>