<svg width="38" height="30" fill="none" xmlns="http://www.w3.org/2000/svg"><path d="M37.67 22.578a1.445 1.445 0 00-1.367-.778 1.265 1.265 0 00-.642-.456 1.268 1.268 0 00-.972.087 1.265 1.265 0 00-.626.748 1.262 1.262 0 00-.006.744 1.343 1.343 0 102.034 1.749 1.455 1.455 0 001.678-.988 1.44 1.44 0 00-.099-1.106zm-.858.807a.453.453 0 01-.674.243.503.503 0 00-.755.283.34.34 0 11-.486-.392l.015-.007a.501.501 0 00.162-.776.27.27 0 01.08-.417.27.27 0 01.389.174.5.5 0 00.673.34.449.449 0 01.596.552zm-5.494-6.875c.042.143.081.29.116.436a.502.502 0 00.976-.233 9.16 9.16 0 00-.13-.487.502.502 0 00-.962.285zm-3.353-4.272a8.872 8.872 0 012.03 1.847 7.932 7.932 0 01.717 1.07.502.502 0 00.877-.486 8.786 8.786 0 00-.808-1.207 9.874 9.874 0 00-2.258-2.057.502.502 0 00-.558.833zM9.427 14.18a.502.502 0 00.685-.185 4.43 4.43 0 01.385-.568l.016-.021a8.084 8.084 0 011.82-1.761.5.5 0 10-.579-.819 9.085 9.085 0 00-2.045 1.98l-.016.021c-.201.27-.285.382-.45.669a.5.5 0 00.184.684zm-.826 1.811a.51.51 0 00.724-.33 13.8 13.8 0 01.15-.344.5.5 0 10-.919-.405c-.088.199-.135.311-.16.374-.034.082-.181.503.205.705zm9.699-3.507c-.046-.007-1.147-.168-2.526.322-1.257.446-3.003 1.54-4.188 4.213a.5.5 0 00.459.704h6.18a.501.501 0 00.5-.501v-4.243a.501.501 0 00-.425-.495zm-.578 4.237H12.85c1.596-2.926 3.922-3.264 4.873-3.27v3.27zm8.87-2.201c-1.205-1.101-3.345-2.354-6.696-2.063a.501.501 0 00-.459.499v4.268a.5.5 0 00.502.5h8.025a.502.502 0 00.467-.683c-.021-.054-.53-1.322-1.84-2.52zm-6.151 2.203v-3.298c2.178-.095 4.007.51 5.44 1.805a7.072 7.072 0 011.25 1.493h-6.69zm-2.346 2.215h-1.287a.43.43 0 00-.43.428.43.43 0 00.43.429h1.287a.43.43 0 00.43-.429.43.43 0 00-.43-.428zm9.852 0H26.66a.43.43 0 00-.43.428.43.43 0 00.43.429h1.287a.43.43 0 00.43-.429.43.43 0 00-.43-.428z" fill="#2E2E2E"/><path d="M33.27 20.131c-.079-.65-.34-1.122-.776-1.401-.422-.27-.89-.278-1.203-.24-.824-2.834-2.67-5.29-4.98-6.51a11.642 11.642 0 00-2.404-.935h2.753a.563.563 0 100-1.124h-1.027a1.33 1.33 0 00.155-.625V6.97c0-.74-.602-1.34-1.342-1.34H23.13c.028-.109.044-.222.044-.339V2.965c0-.74-.602-1.34-1.342-1.34h-.657l.251-.232a.5.5 0 10-.68-.737l-.692.637-.682-.635a.502.502 0 00-.684.733l.25.233h-.654c-.74 0-1.343.602-1.343 1.34v2.327c0 .117.017.23.045.339h-1.317c-.74 0-1.342.6-1.342 1.34v2.327c0 .225.056.438.155.624h-1.027a.562.562 0 100 1.125h2.4c-1.47.391-3.011 1.085-4.104 2.307-.502.562-.88 1.193-1.247 1.803l-.238.396c-.02.032-.059.103-.11.197-.24.44-.415.734-.522.879H7.637c-2.296 0-4.26 1.561-5.023 3.75-.328-.014-.847.03-1.278.373-.278.22-.614.651-.636 1.448-.017.655.172 1.16.564 1.5.175.15.367.248.555.31a.727.727 0 00-.134.42v.137c0 .404.332.735.737.735h1.345c.135.033.275.051.42.051h.782a3.597 3.597 0 001.99 2.727H4.454a.501.501 0 100 1.002h27.672a.501.501 0 100-1.002h-5.273a3.597 3.597 0 001.99-2.727h1.028c.146 0 .288-.018.425-.05h1.351a.74.74 0 00.737-.736v-.046h.296a.501.501 0 00.502-.501v-1.585a.501.501 0 00-.502-.501h-.172a1.63 1.63 0 00.344-.276c.243-.26.514-.735.419-1.526zm-31.05 2.95a.671.671 0 01-.298-.14c-.154-.133-.228-.374-.219-.715.01-.328.095-.56.255-.689a.747.747 0 01.341-.141l-.08 1.685zM23.174 6.63h1.272c.184 0 .34.156.34.339v.662h-1.612v-1zm0 2.003h1.611v.662a.343.343 0 01-.339.339h-1.272v-1zm-2.64-6.008h1.297c.184 0 .34.155.34.339v.662h-1.637v-1zm0 2.003h1.636v.662a.343.343 0 01-.339.339h-1.297v-1zm.025 3.003V6.97c0-.184.155-.339.339-.339h1.272v1.001h-1.612zm1.611 1.002v1h-1.272a.343.343 0 01-.34-.338v-.662h1.612zm-4.226-5.67c0-.183.155-.338.339-.338h1.248v1h-1.587v-.661zm0 1.665h1.587v1h-1.248a.343.343 0 01-.34-.338v-.66h.001zm0 2.003h1.273c.183 0 .338.155.338.338v.662h-1.611v-1zm0 2.002h1.611v.662a.343.343 0 01-.338.339h-1.273v-1zM15.329 6.97c0-.183.155-.338.34-.338h1.272v1h-1.612V6.97zm.34 2.665a.343.343 0 01-.34-.339v-.662h1.612v1h-1.273zm-6.1 15.717A1.158 1.158 0 117.48 24.35a1.158 1.158 0 012.087 1.003zm.521 2.727a3.597 3.597 0 001.99-2.727h9.651a3.596 3.596 0 001.99 2.727H10.09zm16.24-2.727a1.158 1.158 0 11-2.087-1.004 1.158 1.158 0 012.087 1.004zm4.456-2.417c-.004.161-.01.313-.016.452a1.163 1.163 0 01-.057.307h-2.028a3.597 3.597 0 00-3.398-2.43 3.596 3.596 0 00-3.399 2.43h-9.964a3.596 3.596 0 00-3.399-2.43 3.596 3.596 0 00-3.398 2.43H3.339a1.141 1.141 0 01-.063-.374v-.92c0-2.63 1.956-4.77 4.361-4.77h2.175c.396 0 .641-.333 1.224-1.402l.085-.154c.082-.134.163-.268.243-.403.358-.597.696-1.16 1.134-1.65 1.714-1.917 4.809-2.358 6.501-2.45 1.816-.098 4.478.046 6.843 1.295 2.444 1.29 4.379 4.282 4.815 7.444.13.936.146 1.886.129 2.625zm1.392.583h-.413c.002-.029.006-.056.007-.085.007-.153.013-.32.017-.498h.389v.583zm-.056-2.55a.746.746 0 01-.317.19l-.167-1.678c.11.008.224.035.318.096.17.11.277.338.317.674.04.326-.012.568-.151.718zm4.425 7.11h-2.33a.501.501 0 100 1.002h2.33a.501.501 0 100-1.002zm-34.227 0H.501a.501.501 0 100 1.002h1.817a.501.501 0 100-1.002z" fill="#2E2E2E"/></svg>